# xmcd
#
# Track frame offsets: 
#        150
#        17926
#        34277
#        49202
#        66981
#        82882
#        98483
#        115134
#        135460
#        149486
#        164261
#        182637
#
# Disc length: 2655 seconds
#
# Revision: 0
# Processed by: cddbd v1.5.1PL2 Copyright (c) Steve Scherf et al.
# Submitted via: ExactAudioCopy v0.95b3
#
DISCID=a10a5d0c
DTITLE=Various Artist - Loog Thung - Sweet acoustic
DYEAR=1900
DGENRE=Country
TTITLE0=Ya jai kon jon - Mike Piromporn
TTITLE1=Plarin ya jai - Siriporn Umpaipong
TTITLE2=Tong mee suk wan - Jakrapun Arbkonburi
TTITLE3=Tur mai roo loek - Pornchita Na Songkra (Benz)
TTITLE4=Warn dee jay - Jakrapun Arbkonburi
TTITLE5=Mai dai ma ngor - Opard Todsapo
TTITLE6=Nuen mai kon dee - Mike Piromporn
TTITLE7=Rang jai rai wan - Siriporn Umpaipong
TTITLE8=Jak kon tee ruk tur - Jakrapun Arbkonburi
TTITLE9=Poo yoo bueang lung - Mike Piromporn
TTITLE10=Kid tueng kon krai - Kat Rattikarn
TTITLE11=Sunya kub jai - Jomkwan Kunlaya
EXTD=By Mike Piromporn, Siriporn Umpaipong, Got Jakkrapan, Ord Opass, 
EXTD=Benz Pornshita.
EXTT0=
EXTT1=
EXTT2=
EXTT3=
EXTT4=
EXTT5=
EXTT6=
EXTT7=
EXTT8=
EXTT9=
EXTT10=
EXTT11=
PLAYORDER=
